<?xml version="1.0" encoding="utf-8"?>
<!-- Generator: Adobe Illustrator 16.0.5, SVG Export Plug-In . SVG Version: 6.00 Build 0)  -->
<!DOCTYPE svg PUBLIC "-//W3C//DTD SVG 1.1//EN" "http://www.w3.org/Graphics/SVG/1.1/DTD/svg11.dtd">
<svg version="1.1" id="Layer_1" xmlns="http://www.w3.org/2000/svg" xmlns:xlink="http://www.w3.org/1999/xlink" x="0px" y="0px"
	 width="480px" height="140px" viewBox="0 0 480 140" enable-background="new 0 0 480 140" xml:space="preserve">
<g>
	<path fill="#999999" d="M290.9,23.3c1.4,1,2.1,3,2.5,4.4c0.4,1.6,0.6,3.5,0.6,5.7c0,3.7-0.4,7.6-1.2,11.8c0,0.1,0,0.2,0.1,0.2
		c0.1,0,0.2,0,0.2-0.1c1.3-4.2,2-8.1,2.4-11.8c0.2-2.4,0.2-4.4-0.1-6.2c-0.3-1.7-0.9-4.2-2.9-6c0,0-0.1-0.1-0.1-0.1c0,0,0,0-0.1,0
		c0,0,0,0,0,0c-2.4-1.9-4.8-2.6-7.3-1.9c-5.1,1.3-9.9,8.3-14.8,21.4c-1.9,5-3.7,10.4-5.5,15.5c-0.5,1.4-0.9,2.7-1.4,4.1l-0.6,1.7
		c-2.8,1-5.7,1.4-8.4,1.2c-1.5-0.1-3-0.4-4.3-0.9c-1.8-0.7-2.8-1.4-3.3-2.1c-0.6-1.1-0.9-2.6-1-4l-0.3-2.3c0-0.2-0.1-0.3-0.1-0.5
		c-0.1-0.6-0.2-1.2-0.7-1.9c0-0.1-0.1-0.1-0.1-0.1l0,0c0,0,0,0,0-0.1c0,0-0.1-0.1-0.1-0.1l-0.3-0.4c-0.2-0.2-0.4-0.4-0.7-0.5
		c-0.6-0.2-1.3,0.1-1.6,0.7c-0.5,0.3-1,0.7-1.5,1.2c-2,2.2-3.4,5.2-4.4,7.7c-1.6-4.4-5.4-9.2-7.5-9.7c-0.1,0-0.3,0-0.4,0
		c-2.2,0-3.8,3.6-5.8,8.1l-0.2,0.4c-1.6,3.8-4.4,10.2-6.6,10.2c-0.3,0-0.5-0.1-0.7-0.3c-2.9-2.3,3.1-17.8,5.3-23.7
		c0.3-0.8,0.5-1.4,0.7-1.8c5.2,0.1,10.3,0.3,15.1,0.6c0,0,0,0,0,0c0,0,0,0,0,0c0.1,0,0.2-0.1,0.2-0.2c0-0.1-0.1-0.2-0.2-0.2
		c-4.8-0.5-9.7-1-14.7-1.5c1.5-4.2,2.9-9,4.2-14.2c0.2-0.7-0.2-1.3-0.9-1.5c-0.6-0.2-1.4,0.1-1.6,0.8c-0.8,2.2-3,8-5.2,14.7
		c-3.4-0.3-6.1-0.5-8.6-0.6l-0.8,0c-1.7-0.1-3.4-0.2-5.1-0.2c-1.2,0-2.3,0-3.3,0.1c0,0-0.1,0-0.1,0c-0.7,0.1-1.2,0.8-1.1,1.5
		c0.1,0.6,0.6,1.1,1.3,1.1c0.1,0,0.1,0,0.2,0c0,0,0,0,0,0c2.7-0.4,5.6-0.4,8.4-0.5l0.3,0c2.8,0,5.7,0,8.2,0.1
		c-3.5,14.2-16.2,21.1-18.2,22.1c0.2-0.7,0.5-1.6,0.8-2.1c0.8-2.1,1.5-3.9,0.8-5.2c-0.3-0.5-0.8-0.9-1.5-1c-1.2-0.2-2.7,0.7-4.4,2.7
		c0.7-2.8,1.2-4.7,1.3-5.6c0-0.3,0-0.7-0.2-1c-0.2-0.3-0.5-0.5-0.9-0.5c-0.6-0.1-1.1,0.3-1.5,1c-1.6,3.6-14.5,11.3-15.9,11.3
		c-0.4-0.3-0.1-1.5,0.1-2.4c0.1-0.4,0.2-0.8,0.2-1.1c0.4-2.9,0.6-4.3-0.6-4.9c-0.1-0.1-0.4-0.2-0.7-0.2c-0.4,0-0.9,0.2-1.3,0.5
		c-0.3,0.3-0.6,0.6-0.9,1.1c-0.1-0.8-0.2-1.6-0.3-2.4c-0.1-0.3-0.3-1.4-1.1-1.4c-0.5,0-1.1,0.4-1.8,1.2c-4,4.8-10.5,9.4-12.4,9.7
		c-0.1,0-0.2,0-0.4,0c-0.4,0-1.2-0.1-1.6-0.8c-0.5-0.9-0.6-2.8,2-7.3c0.3-0.6,0.1-1.3-0.5-1.7c-0.6-0.3-1.3-0.2-1.7,0.4
		c-0.2,0.3-0.5,0.8-0.9,1.4c-0.3,0.6-0.8,1.3-1.2,2c-2,3.2-5.4,6-7.2,6c-0.5,0-0.8-0.2-0.9-0.5c-0.8-1.6,1-4.7,2.8-7.9
		c0.3-0.6,0.7-1.2,1-1.8c0.2-0.3,0.2-0.6,0.1-1c-0.1-0.3-0.3-0.6-0.6-0.8c-0.2-0.1-0.4-0.2-0.6-0.2c-0.5,0-0.9,0.3-1.1,0.7
		c-1.3,2.3-2.4,4.5-3.2,6.4c-0.2,0.2-0.3,0.4-0.4,0.6c-0.4,0.5-0.8,1.1-1.3,1.5c-0.9,1-2.2,2.3-3.6,3.1c-0.7,0.4-1.3,0.6-1.8,0.6
		c0,0,0,0,0,0c-0.5,0-0.9-0.2-1.3-0.7c-1.5-1.5-0.8-4.7,0.1-7c1.1-3,2.9-5.8,3.7-7.1c0.2-0.3,0.3-0.6,0.2-1c0-0.1,0-0.1-0.1-0.2
		c5.1-4.3,7.8-8.3,9.2-11.1c2.1-4.2,2.4-8.3,0.8-11c-1.2-2.2-2.9-2.8-4.1-2.9c-5.8-0.6-13.3,8.8-14.8,10.7c-0.4,0.6-0.3,1.4,0.2,1.8
		c0.2,0.2,0.5,0.3,0.8,0.3c0.4,0,0.8-0.2,1-0.5c2.1-2.7,8.4-9.7,12.3-9.7c0.1,0,0.1,0,0.2,0c0.5,0,1.3,0.3,2.1,1.5
		c1.1,2,0.8,5.3-0.9,8.7c-2.3,4.8-10.9,16.9-40.1,26.1C84.5,49,60.1,40.9,38.7,40.9c-12.5,0-23.4,2.8-30.7,8
		c-8.8,6.3-8.3,11.7-7.2,14.4c3.2,7.9,19.5,12.8,42.5,12.8c10.9,0,22.9-1.1,35.8-3.2c10.2-1.7,19.6-3.8,27.9-6.3
		c8.1,5.3,16.1,11.6,23.9,18.6c0,0,0,0,0,0c14,12.2,27,26.3,39.9,43.4c0,0,0.1,0.1,0.1,0.1c0,0,0.1,0,0.1,0c0.1-0.1,0.1-0.2,0-0.2
		c-5.8-8.4-11.9-16.3-18-23.5c-6.6-7.8-13.4-15-20.4-21.6l0,0c0,0,0,0,0,0c-7.3-6.6-14.9-12.5-22.5-17.6
		c11.6-3.8,19.9-8.1,25.8-12.2c-2.1,4-4.4,10-1.3,13.4l0,0c0,0,0.1,0.1,0.1,0.1l0,0c0,0,0,0,0,0c0,0,0,0,0,0
		c0.6,0.6,1.7,1.1,2.8,1.1c0.2,0,0.3,0,0.5,0c1.2-0.1,2.1-0.7,2.8-1.2c1.1-0.9,2-1.8,2.7-2.7c-0.2,1.4,0.2,3,1.8,3.6
		c0.4,0.1,0.7,0.2,1.1,0.2c2,0,3.8-1.8,5.7-3.6c0.6-0.6,1.2-1.2,1.9-1.7c-0.1,0.9-0.2,2.9,0.5,3.7c0.9,0.9,1.9,1.3,3.4,1.3
		c0.3,0,0.7,0,1.1-0.1c4-0.4,7.7-3.2,12.8-9.6c0.1-0.1,0.1-0.1,0.2-0.2c0.2,0.9-1.8,7.9-2.2,9.1c-0.2,0.7,0.1,1.4,0.8,1.6
		c0.1,0.1,0.3,0.1,0.5,0.1c0.5,0,1-0.3,1.2-0.8c0,0,0.3-0.6,0.7-1.3c0.7-1.3,1.8-3.3,2.5-4.7c-0.3,2.5-0.4,4.2,0.4,5.1
		c0.3,0.3,0.8,0.6,1.2,0.6c0,0,0.1,0,0.1,0c0.6,0,10.9-5.2,15.1-8.2c-0.9,3.3-1.9,6.9-2.2,7.9l0,0.1c-0.2,0.6,0.1,1.3,0.8,1.6
		c0.6,0.2,1.3,0,1.6-0.6c2-3.8,4.5-7.5,5.9-8.5c-0.2,0.7-0.5,1.7-0.8,2.3l0,0.1c-0.9,2.2-1.5,4-0.6,5.1c0.3,0.3,0.7,0.7,1.6,0.7
		c0.2,0,0.3,0,0.5,0l0.1,0c2-0.2,8.8-1.4,13.7-8.1c-1,5.2-1.1,8.7-0.2,10.2c0.6,1,1.4,1.3,1.9,1.4c0.2,0,0.4,0.1,0.7,0.1
		c2.2,0,4.3-1.7,6.3-5.4c0.2,0.4,0.4,0.7,0.6,1c1,1.2,2.8,1.9,4.9,1.9c1.2,0,2.3-0.2,3-0.6c2.9-1.7,2.3-7.2,1.1-11.8
		c1.3,1.9,2.7,4.4,2.9,6.3c0,0.9,0.1,2.3,1.4,2.5c1.3,0.2,1.6-0.8,2.4-3c0.9-2.3,2.3-6.1,4.5-8.4c0.3-0.3,0.4-0.4,0.6-0.6
		c0.1,0.3,0.2,0.6,0.3,1l0.4,2.2l0,0.2c0.3,1.5,0.6,3,1.6,4.5c0.3,0.4,0.6,0.8,1,1.1c0.4,0.3,0.6,0.4,1,0.6l0.2,0.1
		c0.7,0.4,1.4,0.7,2.3,0.9c1.5,0.4,3.1,0.7,4.8,0.7l0.2,0c2.6,0,5.2-0.5,7.9-1.5c-1.2,3.5-2.6,7.5-4.1,11.6
		c-10.1-2-20.1-3.1-29.8-3.1c-7.1,0-13.8,0.6-19.9,1.7c-11.7,2.1-32.3,12.1-39.3,26.9c-3.3,7-3,13.9,0.9,20.7
		c5,8.8,18.4,12.7,26.3,12.7c0.1,0,0.2,0,0.3,0c0.1,0,0.2,0,0.3,0c16.5-0.1,29.9-5.7,40.8-17.2c8.4-8.8,15.3-20.8,22.2-38.8
		c6.2,1.4,12.4,3.1,18.3,5.1c0.7,0.2,1.4-0.1,1.6-0.8c0.1-0.3,0.1-0.7-0.1-1c-0.1-0.3-0.4-0.5-0.7-0.7c-5.8-2.1-12-3.8-18.2-5.1
		c1.7-4.6,3.3-9.2,4.8-13.6c2-1.1,3.8-2.5,5.5-4.1c0.1-0.1,0.1-0.2,0-0.2c-0.1-0.1-0.2-0.1-0.2,0c-1.5,1.3-3.2,2.4-4.9,3.3
		c0.2-0.5,0.4-1.1,0.6-1.6c0.2-0.7,0.5-1.3,0.7-2c1.8-5.2,3.6-10.5,5.4-15.5c4.5-12,8.9-18.7,13-19.8
		C287.4,21.4,289.1,21.9,290.9,23.3z M228,54.4c2.6,6,2.9,10.1,0.8,12c-0.5,0.4-1.1,0.7-1.8,0.7c-1.1,0-2.2-0.6-2.9-1.5
		C223.2,64.3,222.3,61.1,228,54.4z M104.2,64.7C96.5,67,88,68.9,78.7,70.4c-12.8,2.1-24.8,3.1-35.6,3.1C21.7,73.5,6,69.1,3.2,62.2
		c-1.8-4.4,2.4-8.6,6.3-11.3c6.4-4.5,17.3-7.3,29.3-7.3l0.4,0C53.7,43.6,76.6,47.3,104.2,64.7z M257.4,77.2
		c-10.3,26.6-25.6,53.7-60.5,53.9c-0.2,0-0.3,0-0.5,0c-8.4,0-20-4.4-24-11.4c-3.4-6-3.7-12.1-0.8-18.3c6.3-13.4,25.7-23.4,37.4-25.5
		c5.8-1,12.1-1.6,18.8-1.6l0.7,0C237.9,74.2,247.6,75.2,257.4,77.2z"/>
	<path fill="#999999" d="M264.9,84.5c-0.6-0.4-1.4-0.1-1.8,0.5c-0.1,0.2-0.2,0.4-0.2,0.7c0,0.5,0.2,0.9,0.6,1.1l1.2,0.7
		c0.2,0.1,0.4,0.2,0.6,0.2h0c0.5,0,0.9-0.2,1.1-0.6c0.1-0.2,0.2-0.4,0.2-0.7c0-0.5-0.2-0.9-0.6-1.1L264.9,84.5z M265.4,87.4
		L265.4,87.4L265.4,87.4L265.4,87.4z"/>
	<path fill="#999999" d="M479.3,72.6l-67-5.2c0.1-1.5-0.2-2.9-0.5-4c-0.4-1.3-0.9-2.7-1.6-4.4c-1.2-2.7-2.7-5.3-4.5-8c0,0,0,0,0,0
		c0,0-0.1-0.1-0.1-0.1c0,0,0,0-0.1-0.1c0,0,0,0-0.1,0c-0.1-0.1-0.2-0.2-0.3-0.2l-0.1,0c-0.4-0.1-0.8-0.1-1.2,0.1
		c-0.1,0.1-0.3,0.2-0.3,0.3c-6.2,6.5-16.6,16.4-20.1,16.9c-0.2,0-0.3,0-0.4,0c-0.3,0-0.4-0.1-0.5-0.2c-0.7-0.9,0.1-4.4,1.2-7.1
		c0.3-0.7,0-1.4-0.7-1.7c-0.2-0.1-0.3-0.1-0.5-0.1c-0.5,0-1,0.3-1.2,0.8c-0.1,0.2-0.7,1.6-1.2,3.5l-0.1,0.2c-0.3,0.4-0.7,0.8-1,1.2
		c-0.7,0.8-1.3,1.4-1.9,1.8c-0.4,0.2-0.7,0.4-0.9,0.4c0,0-0.1,0-0.1,0c0,0,0,0,0,0c-0.2-0.4,0.5-2.5,0.7-3.3c0.8-2.5,1.6-5-0.1-6.5
		c-0.7-0.7-1.4-6.2-1.1-13.2c0-0.7-0.5-1.3-1.3-1.3c-0.7,0-1.3,0.5-1.3,1.2c0,1-0.1,3.6,0,6.4c-0.3,1.3-0.7,2.5-1.1,3.6
		c-0.6,1.6-1.2,3.2-1.9,4.7c-0.7,1.5-1.5,2.9-2.5,4.3c0,0,0,0,0,0c-0.1,0.2-0.3,0.5-0.5,0.7c-3.1,4.7-5.1,5.9-6.2,6.1
		c-0.1,0-0.2,0-0.4,0c-0.7,0-1.2-0.4-1.6-0.6l0,0c-0.3-0.7,0.8-4.1,1.1-5.2c0.3-1,0.6-1.8,0.6-2.4c0.4-2.2-1.9-6.9-3.4-7.8
		c-0.3-0.5-0.6-3.3-0.5-6.2c0-0.7-0.5-1.3-1.3-1.3c-0.6,0-1.3,0.5-1.3,1.3c0,1.5,0,2.9,0.1,4c-0.4,1.4-0.8,2.6-1.3,3.7
		c-0.5,1.3-1.1,2.5-1.6,3.6c-0.6,1.2-1.2,2.2-2,3.3c0,0,0,0,0,0c-2.7,4.7-5.8,6.8-7.8,7.1c-0.4,0.1-0.8,0-0.9,0
		c-1.4-1.7-0.8-8-0.1-11.5l0.1-0.3c0.1-0.7-0.3-1.4-1-1.5c-0.7-0.1-1.4,0.3-1.5,1l0,0c0,0,0,0.1,0,0.1c-0.2,1-2.2,9.5-8,11.7
		c-0.5,0.2-0.8,0.3-1.1,0.3c-0.4,0-0.5-0.2-0.6-0.4c-0.3-0.8-0.3-2.2,0.1-4c5.5-3.3,9.1-7,10.1-10.5c0.3-1.3,1.2-5.8-0.6-7.4
		c-0.3-0.3-0.8-0.6-1.6-0.6c-0.4,0-0.8,0.1-1.2,0.2c-2.5,0.9-7.2,9.8-9,16.7c-2,1.1-4.2,2.1-6.6,3L333.7,35c0,0,0,0,0-0.1
		c0.3-0.7-0.1-1.4-0.7-1.7c-0.2-0.1-0.3-0.1-0.5-0.1c-0.5,0-1,0.3-1.2,0.8l-11.9,29.3c1.3-4.6,2.3-9.7,1.7-14.9c0,0,0,0,0-0.1l0,0
		c0,0,0-0.1,0-0.1c0,0,0,0,0,0c-0.7-3.8-2.4-6.5-5-8.2c-1.8-1.1-3.5-2-5.3-2.5c1.7-3.6,3.3-7.2,5-10.7c0.3-0.6,0-1.4-0.6-1.7
		c-0.2-0.1-0.3-0.1-0.5-0.1c-0.5,0-1,0.3-1.2,0.7c-0.9,1.9-2.8,5.9-5.2,11.2c-2.5-0.3-4.9,0.2-7,1.3c-5.6,3.1-9,10.9-9,20.9
		c0,3.1,0.8,5.6,2.5,7.6c-5.4,12.4-8,19-7.9,20.2c0.1,0.7,0.6,1.2,1.3,1.2h0c0,0,0.1,0,0.1,0c0.4,0,0.7-0.2,0.9-0.5
		c0.2-0.3,0.3-0.6,0.3-0.9c0-0.8,1.3-4.5,7.3-18.1c1.7,1.2,3.7,1.9,6.2,2.3c1,0.1,2.1,0.2,3.3,0.2c3.1,0,6.6-0.5,10.2-1.6
		c-0.7,2.6-1.6,5.1-2.5,7.5c0,0.1,0,0.2,0.1,0.2c0.1,0,0.2,0,0.2-0.1l3.8-8.1c2.7-0.9,5.2-1.9,7.5-3c-0.1,1.4-0.1,2.5,0.3,3.3
		c0.2,0.6,1,2.1,3,2.1c0.6,0,1.3-0.1,2.1-0.4c2.5-0.9,4.6-2.8,6.3-5.4c0.1,2.4,0.6,4.1,1.4,5.1c0.6,0.7,1.5,1.1,2.8,0.9
		c2.6-0.2,6.7-2.5,10.1-8.4c0,0,0,0,0,0c0.6-1.3,1.2-2.6,1.6-3.9c0.4-1.3,0.8-2.6,1.2-4c0.1-0.5,0.2-1,0.3-1.5
		c0.4,1.3,0.9,1.6,1.1,1.8c0.7,0.4,2.6,4.1,2.4,5.3c-0.1,0.4-0.3,1.1-0.5,1.8l-0.1,0.2c-1.2,3.9-1.9,6.7-0.3,7.9
		c0.6,0.5,1.7,1.3,3.3,1.3c0.3,0,0.5,0,0.8-0.1c2.4-0.4,5.1-2.8,8-7.2c0.2-0.3,0.3-0.5,0.5-0.8c0,0,0,0,0,0c0,0,0,0,0,0
		c0.9-1.6,1.6-3.3,2.2-4.9c0.6-1.6,1.1-3.3,1.5-5c0.3,2.5,0.9,4.1,1.6,4.7c0.4,0.3-0.4,2.9-0.7,3.8c-0.7,2.2-1.5,4.7,0.1,6
		c0,0,0,0,0,0l0,0c0,0,0,0,0.1,0.1c0,0,0,0,0,0l0,0c0.1,0.1,0.8,0.4,1.2,0.4c0,0,0.1,0,0.1,0c0.4,0,0.8-0.1,1.2-0.3
		c0.6-0.3,1.1-0.7,1.4-1.1c0.5-0.5,0.9-1.1,1.3-1.6c0,1.4,0.2,2.4,0.8,3.1c0.5,0.6,1.5,1.4,3.3,1.1c4.8-0.8,16.8-12.8,20.6-16.7
		c1.5,2.2,2.6,4.3,3.6,6.2c1.1,2.4,2.1,4.9,2.1,7.2l-14.1-1.1c-0.3,0-0.6,0.1-0.8,0.3c-0.2,0.2-0.3,0.4-0.2,0.7
		c0,0.3,0.1,0.5,0.3,0.7c2.7,2.4,5.4,3.8,8.3,4.5c1.7,0.4,3.4,0.3,5-0.1c0.4-0.1,0.8-0.2,1.1-0.4c0.5-0.2,0.9-0.5,1.3-0.8
		c0.5-0.5,0.9-1.1,1.2-1.9l67.3,4c0,0,0,0,0,0c0.1,0,0.2-0.1,0.2-0.2C479.5,72.6,479.4,72.6,479.3,72.6z M329.3,60.9
		c1.9-5.4,5.3-11.7,6.6-12.2c0.1,0,0.2-0.1,0.2-0.1c0.2,0.4,0.3,2.5-0.2,4.8C335.2,55.8,332.9,58.4,329.3,60.9z M307.1,39.4
		c-4.3,9.4-8.1,17.7-11.1,24.6c-0.7-1.3-1.1-3-1.1-4.9c0-9.1,2.9-16,7.7-18.6c1.3-0.7,2.8-1.1,4.3-1.1
		C306.9,39.4,307,39.4,307.1,39.4z M318,63c-0.2,1.2-0.5,2.4-0.8,3.7c-5.2,1.6-10.1,2.2-13.9,1.7c-2.2-0.3-4.1-1.1-5.5-2.2
		c4.2-9.5,8.8-19.5,11.9-26.4c1.6,0.4,3.3,1.2,5,2.3c2,1.3,3.3,3.6,3.9,6.7C319.6,53.7,318.8,59,318,63z M409.7,68.8
		c-0.1,0.2-0.2,0.3-0.3,0.4c-0.1,0.1-0.4,0.3-0.6,0.4c-0.4,0.2-0.7,0.3-0.9,0.4c-1.2,0.4-2.5,0.4-3.9,0.2c-1.6-0.3-3.2-1-4.8-2
		L409.7,68.8z M288.1,88L288.1,88L288.1,88L288.1,88z"/>
	<path fill="#999999" d="M385.7,50.6c0,0,0.1,0,0.1,0c0.7,0,1.2-0.5,1.3-1.2c0.1-1.2,0.1-1.2,0.1-1.2c0-0.7-0.5-1.2-1.2-1.3
		c0,0-0.1,0-0.1,0c-0.7,0-1.3,0.5-1.3,1.2l-0.1,1.1c0,0,0,0.1,0,0.1C384.6,50,385.1,50.5,385.7,50.6z"/>
</g>
</svg>
