<svg xmlns="http://www.w3.org/2000/svg" width="480" height="140" viewBox="0 0 480 140"><g fill="#999"><path d="M290.9 23.3c1.4 1 2.1 3 2.5 4.4.4 1.6.6 3.5.6 5.7 0 3.7-.4 7.6-1.2 11.8 0 .1 0 .2.1.2s.2 0 .2-.1c1.3-4.2 2-8.1 2.4-11.8.2-2.4.2-4.4-.1-6.2-.3-1.7-.9-4.2-2.9-6l-.1-.1h-.1c-2.4-1.9-4.8-2.6-7.3-1.9-5.1 1.3-9.9 8.3-14.8 21.4-1.9 5-3.7 10.4-5.5 15.5l-1.4 4.1-.6 1.7c-2.8 1-5.7 1.4-8.4 1.2-1.5-.1-3-.4-4.3-.9-1.8-.7-2.8-1.4-3.3-2.1-.6-1.1-.9-2.6-1-4l-.3-2.3-.1-.5c-.1-.6-.2-1.2-.7-1.9 0-.1-.1-.1-.1-.1v-.1l-.1-.1-.3-.4c-.2-.2-.4-.4-.7-.5-.6-.2-1.3.1-1.6.7-.5.3-1 .7-1.5 1.2-2 2.2-3.4 5.2-4.4 7.7-1.6-4.4-5.4-9.2-7.5-9.7h-.4c-2.2 0-3.8 3.6-5.8 8.1l-.2.4c-1.6 3.8-4.4 10.2-6.6 10.2-.3 0-.5-.1-.7-.3-2.9-2.3 3.1-17.8 5.3-23.7.3-.8.5-1.4.7-1.8 5.2.1 10.3.3 15.1.6.1 0 .2-.1.2-.2s-.1-.2-.2-.2c-4.8-.5-9.7-1-14.7-1.5 1.5-4.2 2.9-9 4.2-14.2.2-.7-.2-1.3-.9-1.5-.6-.2-1.4.1-1.6.8-.8 2.2-3 8-5.2 14.7-3.4-.3-6.1-.5-8.6-.6h-.8c-1.7-.1-3.4-.2-5.1-.2-1.2 0-2.3 0-3.3.1h-.1c-.7.1-1.2.8-1.1 1.5.1.6.6 1.1 1.3 1.1h.2c2.7-.4 5.6-.4 8.4-.5h.3c2.8 0 5.7 0 8.2.1-3.5 14.2-16.2 21.1-18.2 22.1.2-.7.5-1.6.8-2.1.8-2.1 1.5-3.9.8-5.2-.3-.5-.8-.9-1.5-1-1.2-.2-2.7.7-4.4 2.7.7-2.8 1.2-4.7 1.3-5.6 0-.3 0-.7-.2-1-.2-.3-.5-.5-.9-.5-.6-.1-1.1.3-1.5 1-1.6 3.6-14.5 11.3-15.9 11.3-.4-.3-.1-1.5.1-2.4.1-.4.2-.8.2-1.1.4-2.9.6-4.3-.6-4.9-.1-.1-.4-.2-.7-.2-.4 0-.9.2-1.3.5-.3.3-.6.6-.9 1.1l-.3-2.4c-.1-.3-.3-1.4-1.1-1.4-.5 0-1.1.4-1.8 1.2-4 4.8-10.5 9.4-12.4 9.7h-.4c-.4 0-1.2-.1-1.6-.8-.5-.9-.6-2.8 2-7.3.3-.6.1-1.3-.5-1.7-.6-.3-1.3-.2-1.7.4-.2.3-.5.8-.9 1.4-.3.6-.8 1.3-1.2 2-2 3.2-5.4 6-7.2 6-.5 0-.8-.2-.9-.5-.8-1.6 1-4.7 2.8-7.9l1-1.8c.2-.3.2-.6.1-1-.1-.3-.3-.6-.6-.8-.2-.1-.4-.2-.6-.2-.5 0-.9.3-1.1.7-1.3 2.3-2.4 4.5-3.2 6.4-.2.2-.3.4-.4.6-.4.5-.8 1.1-1.3 1.5-.9 1-2.2 2.3-3.6 3.1-.7.4-1.3.6-1.8.6s-.9-.2-1.3-.7c-1.5-1.5-.8-4.7.1-7 1.1-3 2.9-5.8 3.7-7.1.2-.3.3-.6.2-1 0-.1 0-.1-.1-.2 5.1-4.3 7.8-8.3 9.2-11.1 2.1-4.2 2.4-8.3.8-11-1.2-2.2-2.9-2.8-4.1-2.9-5.8-.6-13.3 8.8-14.8 10.7-.4.6-.3 1.4.2 1.8.2.2.5.3.8.3.4 0 .8-.2 1-.5 2.1-2.7 8.4-9.7 12.3-9.7h.2c.5 0 1.3.3 2.1 1.5 1.1 2 .8 5.3-.9 8.7-2.3 4.8-10.9 16.9-40.1 26.1-22.2-14.5-46.6-22.6-68-22.6-12.5 0-23.4 2.8-30.7 8-8.8 6.3-8.3 11.7-7.2 14.4 3.2 7.9 19.5 12.8 42.5 12.8 10.9 0 22.9-1.1 35.8-3.2 10.2-1.7 19.6-3.8 27.9-6.3 8.1 5.3 16.1 11.6 23.9 18.6 14 12.2 27 26.3 39.9 43.4l.1.1h.1c.1-.1.1-.2 0-.2-5.8-8.4-11.9-16.3-18-23.5-6.6-7.8-13.4-15-20.4-21.6-7.3-6.6-14.9-12.5-22.5-17.6 11.6-3.8 19.9-8.1 25.8-12.2-2.1 4-4.4 10-1.3 13.4l.1.1c.6.6 1.7 1.1 2.8 1.1h.5c1.2-.1 2.1-.7 2.8-1.2 1.1-.9 2-1.8 2.7-2.7-.2 1.4.2 3 1.8 3.6.4.1.7.2 1.1.2 2 0 3.8-1.8 5.7-3.6.6-.6 1.2-1.2 1.9-1.7-.1.9-.2 2.9.5 3.7.9.9 1.9 1.3 3.4 1.3.3 0 .7 0 1.1-.1 4-.4 7.7-3.2 12.8-9.6l.2-.2c.2.9-1.8 7.9-2.2 9.1-.2.7.1 1.4.8 1.6.1.1.3.1.5.1.5 0 1-.3 1.2-.8 0 0 .3-.6.7-1.3.7-1.3 1.8-3.3 2.5-4.7-.3 2.5-.4 4.2.4 5.1.3.3.8.6 1.2.6h.1c.6 0 10.9-5.2 15.1-8.2-.9 3.3-1.9 6.9-2.2 7.9v.1c-.2.6.1 1.3.8 1.6.6.2 1.3 0 1.6-.6 2-3.8 4.5-7.5 5.9-8.5-.2.7-.5 1.7-.8 2.3v.1c-.9 2.2-1.5 4-.6 5.1.3.3.7.7 1.6.7h.6c2-.2 8.8-1.4 13.7-8.1-1 5.2-1.1 8.7-.2 10.2.6 1 1.4 1.3 1.9 1.4.2 0 .4.1.7.1 2.2 0 4.3-1.7 6.3-5.4.2.4.4.7.6 1 1 1.2 2.8 1.9 4.9 1.9 1.2 0 2.3-.2 3-.6 2.9-1.7 2.3-7.2 1.1-11.8 1.3 1.9 2.7 4.4 2.9 6.3 0 .9.1 2.3 1.4 2.5 1.3.2 1.6-.8 2.4-3 .9-2.3 2.3-6.1 4.5-8.4l.6-.6c.1.3.2.6.3 1l.4 2.2v.2c.3 1.5.6 3 1.6 4.5.3.4.6.8 1 1.1.4.3.6.4 1 .6l.2.1c.7.4 1.4.7 2.3.9 1.5.4 3.1.7 4.8.7h.2c2.6 0 5.2-.5 7.9-1.5-1.2 3.5-2.6 7.5-4.1 11.6-10.1-2-20.1-3.1-29.8-3.1-7.1 0-13.8.6-19.9 1.7-11.7 2.1-32.3 12.1-39.3 26.9-3.3 7-3 13.9.9 20.7 5 8.8 18.4 12.7 26.3 12.7h.6c16.5-.1 29.9-5.7 40.8-17.2 8.4-8.8 15.3-20.8 22.2-38.8 6.2 1.4 12.4 3.1 18.3 5.1.7.2 1.4-.1 1.6-.8.1-.3.1-.7-.1-1-.1-.3-.4-.5-.7-.7-5.8-2.1-12-3.8-18.2-5.1 1.7-4.6 3.3-9.2 4.8-13.6 2-1.1 3.8-2.5 5.5-4.1.1-.1.1-.2 0-.2-.1-.1-.2-.1-.2 0-1.5 1.3-3.2 2.4-4.9 3.3l.6-1.6.7-2c1.8-5.2 3.6-10.5 5.4-15.5 4.5-12 8.9-18.7 13-19.8 1.2-.5 2.9 0 4.7 1.4zm-62.9 31.1c2.6 6 2.9 10.1.8 12-.5.4-1.1.7-1.8.7-1.1 0-2.2-.6-2.9-1.5-.9-1.3-1.8-4.5 3.9-11.2zm-123.8 10.3c-7.7 2.3-16.2 4.2-25.5 5.7-12.8 2.1-24.8 3.1-35.6 3.1-21.4 0-37.1-4.4-39.9-11.3-1.8-4.4 2.4-8.6 6.3-11.3 6.4-4.5 17.3-7.3 29.3-7.3h.4c14.5 0 37.4 3.7 65 21.1zm153.2 12.5c-10.3 26.6-25.6 53.7-60.5 53.9h-.5c-8.4 0-20-4.4-24-11.4-3.4-6-3.7-12.1-.8-18.3 6.3-13.4 25.7-23.4 37.4-25.5 5.8-1 12.1-1.6 18.8-1.6h.7c9.4-.1 19.1.9 28.9 2.9zM264.9 84.5c-.6-.4-1.4-.1-1.8.5-.1.2-.2.4-.2.7 0 .5.2.9.6 1.1l1.2.7c.2.1.4.2.6.2.5 0 .9-.2 1.1-.6.1-.2.2-.4.2-.7 0-.5-.2-.9-.6-1.1l-1.1-.8zm.5 2.9zM479.3 72.6l-67-5.2c.1-1.5-.2-2.9-.5-4-.4-1.3-.9-2.7-1.6-4.4-1.2-2.7-2.7-5.3-4.5-8l-.1-.1-.1-.1h-.1c-.1-.1-.2-.2-.3-.2h-.1c-.4-.1-.8-.1-1.2.1-.1.1-.3.2-.3.3-6.2 6.5-16.6 16.4-20.1 16.9h-.4c-.3 0-.4-.1-.5-.2-.7-.9.1-4.4 1.2-7.1.3-.7 0-1.4-.7-1.7-.2-.1-.3-.1-.5-.1-.5 0-1 .3-1.2.8-.1.2-.7 1.6-1.2 3.5l-.1.2-1 1.2c-.7.8-1.3 1.4-1.9 1.8-.4.2-.7.4-.9.4h-.1c-.2-.4.5-2.5.7-3.3.8-2.5 1.6-5-.1-6.5-.7-.7-1.4-6.2-1.1-13.2 0-.7-.5-1.3-1.3-1.3-.7 0-1.3.5-1.3 1.2 0 1-.1 3.6 0 6.4-.3 1.3-.7 2.5-1.1 3.6-.6 1.6-1.2 3.2-1.9 4.7s-1.5 2.9-2.5 4.3c-.1.2-.3.5-.5.7-3.1 4.7-5.1 5.9-6.2 6.1h-.4c-.7 0-1.2-.4-1.6-.6-.3-.7.8-4.1 1.1-5.2.3-1 .6-1.8.6-2.4.4-2.2-1.9-6.9-3.4-7.8-.3-.5-.6-3.3-.5-6.2 0-.7-.5-1.3-1.3-1.3-.6 0-1.3.5-1.3 1.3 0 1.5 0 2.9.1 4-.4 1.4-.8 2.6-1.3 3.7-.5 1.3-1.1 2.5-1.6 3.6-.6 1.2-1.2 2.2-2 3.3-2.7 4.7-5.8 6.8-7.8 7.1-.4.1-.8 0-.9 0-1.4-1.7-.8-8-.1-11.5l.1-.3c.1-.7-.3-1.4-1-1.5-.7-.1-1.4.3-1.5 1v.1c-.2 1-2.2 9.5-8 11.7-.5.2-.8.3-1.1.3-.4 0-.5-.2-.6-.4-.3-.8-.3-2.2.1-4 5.5-3.3 9.1-7 10.1-10.5.3-1.3 1.2-5.8-.6-7.4-.3-.3-.8-.6-1.6-.6-.4 0-.8.1-1.2.2-2.5.9-7.2 9.8-9 16.7-2 1.1-4.2 2.1-6.6 3l14.2-30.7v-.1c.3-.7-.1-1.4-.7-1.7-.2-.1-.3-.1-.5-.1-.5 0-1 .3-1.2.8l-11.9 29.3c1.3-4.6 2.3-9.7 1.7-14.9v-.2c-.7-3.8-2.4-6.5-5-8.2-1.8-1.1-3.5-2-5.3-2.5 1.7-3.6 3.3-7.2 5-10.7.3-.6 0-1.4-.6-1.7-.2-.1-.3-.1-.5-.1-.5 0-1 .3-1.2.7-.9 1.9-2.8 5.9-5.2 11.2-2.5-.3-4.9.2-7 1.3-5.6 3.1-9 10.9-9 20.9 0 3.1.8 5.6 2.5 7.6-5.4 12.4-8 19-7.9 20.2.1.7.6 1.2 1.3 1.2h.1c.4 0 .7-.2.9-.5.2-.3.3-.6.3-.9 0-.8 1.3-4.5 7.3-18.1 1.7 1.2 3.7 1.9 6.2 2.3 1 .1 2.1.2 3.3.2 3.1 0 6.6-.5 10.2-1.6-.7 2.6-1.6 5.1-2.5 7.5 0 .1 0 .2.1.2s.2 0 .2-.1l3.8-8.1c2.7-.9 5.2-1.9 7.5-3-.1 1.4-.1 2.5.3 3.3.2.6 1 2.1 3 2.1.6 0 1.3-.1 2.1-.4 2.5-.9 4.6-2.8 6.3-5.4.1 2.4.6 4.1 1.4 5.1.6.7 1.5 1.1 2.8.9 2.6-.2 6.7-2.5 10.1-8.4.6-1.3 1.2-2.6 1.6-3.9.4-1.3.8-2.6 1.2-4l.3-1.5c.4 1.3.9 1.6 1.1 1.8.7.4 2.6 4.1 2.4 5.3-.1.4-.3 1.1-.5 1.8l-.1.2c-1.2 3.9-1.9 6.7-.3 7.9.6.5 1.7 1.3 3.3 1.3.3 0 .5 0 .8-.1 2.4-.4 5.1-2.8 8-7.2l.5-.8c.9-1.6 1.6-3.3 2.2-4.9.6-1.6 1.1-3.3 1.5-5 .3 2.5.9 4.1 1.6 4.7.4.3-.4 2.9-.7 3.8-.7 2.2-1.5 4.7.1 6l.1.1c.1.1.8.4 1.2.4h.1c.4 0 .8-.1 1.2-.3.6-.3 1.1-.7 1.4-1.1.5-.5.9-1.1 1.3-1.6 0 1.4.2 2.4.8 3.1.5.6 1.5 1.4 3.3 1.1 4.8-.8 16.8-12.8 20.6-16.7 1.5 2.2 2.6 4.3 3.6 6.2 1.1 2.4 2.1 4.9 2.1 7.2l-14.1-1.1c-.3 0-.6.1-.8.3-.2.2-.3.4-.2.7 0 .3.1.5.3.7 2.7 2.4 5.4 3.8 8.3 4.5 1.7.4 3.4.3 5-.1.4-.1.8-.2 1.1-.4.5-.2.9-.5 1.3-.8.5-.5.9-1.1 1.2-1.9l67.3 4c.1 0 .2-.1.2-.2h-.6zm-150-11.7c1.9-5.4 5.3-11.7 6.6-12.2.1 0 .2-.1.2-.1.2.4.3 2.5-.2 4.8-.7 2.4-3 5-6.6 7.5zm-22.2-21.5c-4.3 9.4-8.1 17.7-11.1 24.6-.7-1.3-1.1-3-1.1-4.9 0-9.1 2.9-16 7.7-18.6 1.3-.7 2.8-1.1 4.3-1.1h.2zm10.9 23.6c-.2 1.2-.5 2.4-.8 3.7-5.2 1.6-10.1 2.2-13.9 1.7-2.2-.3-4.1-1.1-5.5-2.2 4.2-9.5 8.8-19.5 11.9-26.4 1.6.4 3.3 1.2 5 2.3 2 1.3 3.3 3.6 3.9 6.7 1 4.9.2 10.2-.6 14.2zm91.7 5.8c-.1.2-.2.3-.3.4-.1.1-.4.3-.6.4-.4.2-.7.3-.9.4-1.2.4-2.5.4-3.9.2-1.6-.3-3.2-1-4.8-2l10.5.6zm-121.6 19.2zM385.7 50.6h.1c.7 0 1.2-.5 1.3-1.2l.1-1.2c0-.7-.5-1.2-1.2-1.3h-.1c-.7 0-1.3.5-1.3 1.2l-.1 1.1v.1c.1.7.6 1.2 1.2 1.3z"/></g></svg>